<?xml version="1.0" encoding="UTF-8" standalone="no"?>
<svg
   xmlns:dc="http://purl.org/dc/elements/1.1/"
   xmlns:cc="http://creativecommons.org/ns#"
   xmlns:rdf="http://www.w3.org/1999/02/22-rdf-syntax-ns#"
   xmlns:svg="http://www.w3.org/2000/svg"
   xmlns="http://www.w3.org/2000/svg"
   xmlns:sodipodi="http://sodipodi.sourceforge.net/DTD/sodipodi-0.dtd"
   xmlns:inkscape="http://www.inkscape.org/namespaces/inkscape"
   width="519.22302"
   height="79.497002"
   viewBox="0 0 519.22302 79.497002"
   version="1.1"
   id="svg3882"
   sodipodi:docname="stemma-regular-minimal.svg"
   style="fill:none"
   inkscape:version="0.92.5 (2060ec1f9f, 2020-04-08)">
  <metadata
     id="metadata3886">
    <rdf:RDF>
      <cc:Work
         rdf:about="">
        <dc:format>image/svg+xml</dc:format>
        <dc:type
           rdf:resource="http://purl.org/dc/dcmitype/StillImage" />
        <dc:title></dc:title>
      </cc:Work>
    </rdf:RDF>
  </metadata>
  <sodipodi:namedview
     pagecolor="#ffffff"
     bordercolor="#666666"
     borderopacity="1"
     objecttolerance="10"
     gridtolerance="10"
     guidetolerance="10"
     inkscape:pageopacity="0"
     inkscape:pageshadow="2"
     inkscape:window-width="3840"
     inkscape:window-height="2059"
     id="namedview3884"
     showgrid="false"
     inkscape:zoom="5.3637681"
     inkscape:cx="270"
     inkscape:cy="46.497"
     inkscape:window-x="0"
     inkscape:window-y="70"
     inkscape:window-maximized="1"
     inkscape:current-layer="svg3882" />
  <g
     clip-path="url(#clip0)"
     id="g3875"
     transform="translate(-75,-117)">
    <path
       d="m 577.295,132.315 h 2.556 v 6.88 h 1.977 v -6.88 h 2.571 v -1.666 h -7.104 z"
       id="path3859"
       inkscape:connector-curvature="0"
       style="fill:#ffffff" />
    <path
       d="m 591.532,130.649 -1.051,3.559 c -0.082,0.268 -0.163,0.575 -0.239,0.918 -0.075,0.344 -0.14,0.678 -0.203,0.999 -0.068,0.366 -0.136,0.741 -0.194,1.125 h -0.035 c -0.063,-0.382 -0.133,-0.757 -0.207,-1.125 -0.059,-0.321 -0.133,-0.655 -0.208,-0.999 -0.078,-0.345 -0.152,-0.65 -0.229,-0.918 l -1.075,-3.559 h -2.649 v 8.546 h 1.771 v -3.825 c 0,-0.268 -0.009,-0.578 -0.022,-0.929 -0.016,-0.353 -0.033,-0.689 -0.046,-1.012 -0.024,-0.366 -0.046,-0.746 -0.07,-1.138 h 0.024 c 0.068,0.353 0.142,0.7 0.218,1.044 0.061,0.293 0.135,0.6 0.214,0.925 0.083,0.325 0.159,0.615 0.238,0.868 l 1.24,4.065 h 1.621 l 1.225,-4.065 c 0.077,-0.253 0.157,-0.543 0.24,-0.868 0.079,-0.325 0.151,-0.632 0.214,-0.925 0.076,-0.344 0.15,-0.693 0.218,-1.044 h 0.024 c -0.024,0.39 -0.046,0.767 -0.07,1.138 -0.015,0.323 -0.03,0.659 -0.046,1.012 -0.013,0.351 -0.022,0.661 -0.022,0.929 v 3.825 h 1.817 v -8.548 z"
       id="path3861"
       inkscape:connector-curvature="0"
       style="fill:#ffffff" />
    <path
       d="m 127.679,159.013 c -2.375,-1.542 -5.036,-2.702 -7.982,-3.474 -2.948,-0.77 -5.894,-1.402 -8.842,-1.888 -2.209,-0.406 -4.298,-0.772 -6.261,-1.099 -1.965,-0.325 -3.685,-0.733 -5.1573,-1.222 -1.472,-0.488 -2.6212,-1.116 -3.4368,-1.89 -0.8199,-0.77 -1.2299,-1.769 -1.2299,-2.988 0,-2.113 0.8788,-3.737 2.6386,-4.876 1.7577,-1.138 4.1154,-1.707 7.0614,-1.707 6.14,0 9.826,2.316 11.051,6.947 h 17.928 c -0.901,-5.687 -3.683,-10.301 -8.35,-13.838 -4.665,-3.535 -11.545,-5.304 -20.629,-5.304 -3.849,0 -7.4495,0.426 -10.8078,1.28 -3.356,0.855 -6.2585,2.135 -8.714,3.843 -2.4554,1.707 -4.4006,3.82 -5.8333,6.339 -1.4327,2.521 -2.1501,5.447 -2.1501,8.777 0,3.821 0.676,6.909 2.0258,9.266 1.3521,2.359 3.1293,4.268 5.3427,5.733 2.209,1.463 4.7059,2.56 7.4884,3.293 2.7826,0.732 5.648,1.382 8.5943,1.949 2.292,0.408 4.442,0.794 6.448,1.16 2.004,0.365 3.786,0.836 5.343,1.405 1.555,0.569 2.782,1.299 3.685,2.194 0.901,0.896 1.352,2.073 1.352,3.534 0,2.36 -0.942,4.187 -2.824,5.489 -1.884,1.3 -4.542,1.95 -7.979,1.95 -3.766,0 -6.7754,-0.814 -9.0258,-2.438 -2.2527,-1.625 -3.6657,-3.982 -4.2349,-7.072 H 75 c 0.2464,3.251 1.123,6.239 2.6386,8.96 1.5134,2.726 3.6003,5.059 6.2629,7.011 2.6583,1.95 5.8726,3.456 9.6386,4.512 3.7639,1.055 8.0229,1.585 12.7699,1.585 4.255,0 8.186,-0.447 11.787,-1.341 3.602,-0.894 6.712,-2.233 9.333,-4.023 2.619,-1.786 4.664,-4.024 6.141,-6.706 1.474,-2.682 2.209,-5.77 2.209,-9.266 0,-4.062 -0.759,-7.377 -2.272,-9.937 -1.514,-2.56 -3.455,-4.612 -5.829,-6.158 z"
       id="path3863"
       inkscape:connector-curvature="0"
       style="fill:#ffffff" />
    <path
       d="m 252.682,149.442 c -1.719,-5.284 -4.421,-9.711 -8.106,-13.289 -2.865,-2.599 -6.16,-4.634 -9.885,-6.097 -3.727,-1.466 -7.918,-2.194 -12.585,-2.194 -4.993,0 -9.538,0.874 -13.629,2.619 -4.093,1.749 -7.613,4.165 -10.561,7.253 -2.946,3.09 -5.24,6.727 -6.878,10.912 -1.64,4.189 -2.455,8.716 -2.455,13.594 0,4.878 0.798,9.388 2.394,13.534 1.596,4.145 3.886,7.763 6.878,10.851 2.987,3.09 6.61,5.508 10.866,7.253 4.255,1.746 9.046,2.619 14.367,2.619 4.176,0 7.981,-0.511 11.42,-1.525 3.437,-1.014 6.448,-2.438 9.023,-4.267 2.58,-1.83 4.748,-3.982 6.508,-6.462 1.757,-2.479 3.046,-5.14 3.868,-7.985 H 235.24 c -1.064,2.032 -2.557,3.596 -4.481,4.693 -1.923,1.099 -4.4,1.646 -7.429,1.646 -4.665,0 -8.311,-1.38 -10.93,-4.146 -2.621,-2.76 -4.259,-6.583 -4.913,-11.461 h 47.646 c 0.085,-6.411 -0.733,-12.264 -2.451,-17.548 z m -45.066,6.463 c 0.654,-4.468 2.126,-8.005 4.418,-10.606 2.292,-2.6 5.648,-3.904 10.07,-3.904 3.847,0 6.956,1.28 9.333,3.84 2.373,2.561 3.725,6.117 4.052,10.668 z"
       id="path3865"
       inkscape:connector-curvature="0"
       style="fill:#ffffff" />
    <path
       d="m 566.339,184.433 v -33.286 c 0,-4.389 -0.798,-8.232 -2.394,-11.52 -1.597,-3.293 -4.115,-5.914 -7.552,-7.864 -2.294,-1.38 -4.957,-2.379 -7.983,-2.987 -3.029,-0.609 -6.63,-0.914 -10.803,-0.914 -4.833,0 -9.05,0.591 -12.651,1.768 -3.604,1.18 -6.592,2.766 -8.962,4.754 -2.375,1.993 -4.174,4.29 -5.404,6.889 -1.23,2.602 -1.884,5.284 -1.967,8.047 h 17.805 c 0.247,-2.6 1.289,-4.673 3.132,-6.217 1.843,-1.544 4.605,-2.316 8.289,-2.316 3.356,0 5.811,0.713 7.366,2.135 1.555,1.426 2.333,3.312 2.333,5.669 0,2.438 -1.289,4.229 -3.866,5.365 -2.578,1.14 -6.775,2.115 -12.585,2.924 -3.602,0.408 -6.961,0.997 -10.07,1.769 -3.11,0.772 -5.814,1.888 -8.104,3.351 -2.294,1.464 -4.112,3.374 -5.462,5.729 -1.35,2.36 -2.026,5.325 -2.026,8.902 0,3.168 0.552,5.994 1.66,8.472 1.105,2.481 2.658,4.533 4.664,6.158 2.004,1.627 4.379,2.865 7.122,3.718 2.743,0.855 5.711,1.28 8.904,1.28 5.074,0 9.106,-0.855 12.094,-2.56 2.987,-1.708 5.545,-4.063 7.674,-7.072 h 0.246 c 0.161,1.871 0.447,3.474 0.859,4.817 0.41,1.341 0.859,2.379 1.352,3.107 h 18.787 v -1.096 c -1.64,-1.054 -2.458,-4.063 -2.458,-9.022 z m -18.296,-13.169 c 0,3.578 -1.289,6.544 -3.866,8.901 -2.578,2.36 -6.038,3.535 -10.376,3.535 -2.621,0 -4.871,-0.569 -6.755,-1.707 -1.885,-1.138 -2.824,-3.127 -2.824,-5.975 0,-2.844 1.024,-4.918 3.07,-6.217 2.045,-1.298 5.199,-2.397 9.453,-3.293 2.126,-0.489 4.194,-0.995 6.202,-1.524 2.004,-0.53 3.703,-1.239 5.096,-2.135 z"
       id="path3867"
       inkscape:connector-curvature="0"
       style="fill:#ffffff" />
    <path
       d="M 181.823,145.157 V 132.374 H 169.36 V 117 h -18.246 v 15.374 h -9.832 v 12.785 h 9.832 v 33.716 c 0,11.616 6.076,16.795 19.701,16.795 4.913,0 8.463,-0.401 10.327,-0.802 v -13.263 c -0.133,0.004 -0.272,0.011 -0.418,0.015 -0.932,0.037 -2.111,0.083 -3.195,0.083 -3.805,0 -8.171,-0.822 -8.171,-7.231 v -29.315 z"
       id="path3869"
       inkscape:connector-curvature="0"
       style="fill:#ffffff" />
    <path
       d="m 351.174,128.636 c -13.102,0 -23.761,10.659 -23.761,23.761 v 19.041 c 0,4.148 -3.375,7.524 -7.523,7.524 -4.148,0 -7.521,-3.376 -7.521,-7.524 v -19.041 c 0,-13.102 -10.659,-23.761 -23.761,-23.761 -13.101,0 -23.76,10.659 -23.76,23.761 v 42.154 h 16.237 v -42.154 c 0,-4.148 3.376,-7.521 7.523,-7.521 4.148,0 7.523,3.373 7.523,7.521 v 19.041 c 0,13.102 10.66,23.761 23.761,23.761 13.102,0 23.761,-10.659 23.761,-23.761 v -19.041 c 0,-4.148 3.375,-7.521 7.523,-7.521 4.148,0 7.521,3.373 7.521,7.521 v 42.669 h 16.238 v -42.669 c 0,-13.102 -10.66,-23.761 -23.761,-23.761 z"
       id="path3871"
       inkscape:connector-curvature="0"
       style="fill:#ffffff" />
    <path
       d="m 472.049,128.636 c -13.102,0 -23.761,10.659 -23.761,23.761 v 19.041 c 0,4.148 -3.375,7.524 -7.523,7.524 -4.148,0 -7.521,-3.376 -7.521,-7.524 v -19.041 c 0,-13.102 -10.659,-23.761 -23.761,-23.761 -13.101,0 -23.761,10.659 -23.761,23.761 v 42.154 h 16.238 v -42.154 c 0,-4.148 3.375,-7.521 7.523,-7.521 4.148,0 7.523,3.373 7.523,7.521 v 19.041 c 0,13.102 10.66,23.761 23.761,23.761 13.102,0 23.761,-10.659 23.761,-23.761 v -19.041 c 0,-4.148 3.375,-7.521 7.523,-7.521 4.148,0 7.521,3.373 7.521,7.521 v 42.669 h 16.237 v -42.669 c 0,-13.102 -10.659,-23.761 -23.76,-23.761 z"
       id="path3873"
       inkscape:connector-curvature="0"
       style="fill:#ffffff" />
  </g>
  <defs
     id="defs3880">
    <clipPath
       id="clip0">
      <rect
         width="519.22302"
         height="150"
         transform="translate(75,81)"
         id="rect3877"
         x="0"
         y="0"
         style="fill:#ffffff" />
    </clipPath>
  </defs>
</svg>
